<mxfile host="app.diagrams.net" agent="Mozilla/5.0 (X11; Ubuntu; Linux x86_64; rv:131.0) Gecko/20100101 Firefox/131.0" version="24.7.17">
  <diagram name="Страница — 1" id="oFoVeAFmJey5wQ2LloL2">
    <mxGraphModel dx="2074" dy="786" grid="0" gridSize="10" guides="1" tooltips="1" connect="1" arrows="1" fold="1" page="0" pageScale="1" pageWidth="827" pageHeight="1169" math="0" shadow="0">
      <root>
        <mxCell id="0" />
        <mxCell id="1" parent="0" />
        <mxCell id="OlLT59zbi4Das9g7III4-1" value="clients" style="shape=table;startSize=30;container=1;collapsible=1;childLayout=tableLayout;fixedRows=1;rowLines=0;fontStyle=1;align=center;resizeLast=1;html=1;" vertex="1" parent="1">
          <mxGeometry x="-308" width="182" height="150" as="geometry" />
        </mxCell>
        <mxCell id="OlLT59zbi4Das9g7III4-2" value="" style="shape=tableRow;horizontal=0;startSize=0;swimlaneHead=0;swimlaneBody=0;fillColor=none;collapsible=0;dropTarget=0;points=[[0,0.5],[1,0.5]];portConstraint=eastwest;top=0;left=0;right=0;bottom=1;" vertex="1" parent="OlLT59zbi4Das9g7III4-1">
          <mxGeometry y="30" width="182" height="30" as="geometry" />
        </mxCell>
        <mxCell id="OlLT59zbi4Das9g7III4-3" value="PK" style="shape=partialRectangle;connectable=0;fillColor=none;top=0;left=0;bottom=0;right=0;fontStyle=1;overflow=hidden;whiteSpace=wrap;html=1;" vertex="1" parent="OlLT59zbi4Das9g7III4-2">
          <mxGeometry width="30" height="30" as="geometry">
            <mxRectangle width="30" height="30" as="alternateBounds" />
          </mxGeometry>
        </mxCell>
        <mxCell id="OlLT59zbi4Das9g7III4-4" value="client_id" style="shape=partialRectangle;connectable=0;fillColor=none;top=0;left=0;bottom=0;right=0;align=left;spacingLeft=6;fontStyle=5;overflow=hidden;whiteSpace=wrap;html=1;" vertex="1" parent="OlLT59zbi4Das9g7III4-2">
          <mxGeometry x="30" width="152" height="30" as="geometry">
            <mxRectangle width="152" height="30" as="alternateBounds" />
          </mxGeometry>
        </mxCell>
        <mxCell id="OlLT59zbi4Das9g7III4-5" value="" style="shape=tableRow;horizontal=0;startSize=0;swimlaneHead=0;swimlaneBody=0;fillColor=none;collapsible=0;dropTarget=0;points=[[0,0.5],[1,0.5]];portConstraint=eastwest;top=0;left=0;right=0;bottom=0;" vertex="1" parent="OlLT59zbi4Das9g7III4-1">
          <mxGeometry y="60" width="182" height="30" as="geometry" />
        </mxCell>
        <mxCell id="OlLT59zbi4Das9g7III4-6" value="" style="shape=partialRectangle;connectable=0;fillColor=none;top=0;left=0;bottom=0;right=0;editable=1;overflow=hidden;whiteSpace=wrap;html=1;" vertex="1" parent="OlLT59zbi4Das9g7III4-5">
          <mxGeometry width="30" height="30" as="geometry">
            <mxRectangle width="30" height="30" as="alternateBounds" />
          </mxGeometry>
        </mxCell>
        <mxCell id="OlLT59zbi4Das9g7III4-7" value="Row 1" style="shape=partialRectangle;connectable=0;fillColor=none;top=0;left=0;bottom=0;right=0;align=left;spacingLeft=6;overflow=hidden;whiteSpace=wrap;html=1;" vertex="1" parent="OlLT59zbi4Das9g7III4-5">
          <mxGeometry x="30" width="152" height="30" as="geometry">
            <mxRectangle width="152" height="30" as="alternateBounds" />
          </mxGeometry>
        </mxCell>
        <mxCell id="OlLT59zbi4Das9g7III4-8" value="" style="shape=tableRow;horizontal=0;startSize=0;swimlaneHead=0;swimlaneBody=0;fillColor=none;collapsible=0;dropTarget=0;points=[[0,0.5],[1,0.5]];portConstraint=eastwest;top=0;left=0;right=0;bottom=0;" vertex="1" parent="OlLT59zbi4Das9g7III4-1">
          <mxGeometry y="90" width="182" height="30" as="geometry" />
        </mxCell>
        <mxCell id="OlLT59zbi4Das9g7III4-9" value="" style="shape=partialRectangle;connectable=0;fillColor=none;top=0;left=0;bottom=0;right=0;editable=1;overflow=hidden;whiteSpace=wrap;html=1;" vertex="1" parent="OlLT59zbi4Das9g7III4-8">
          <mxGeometry width="30" height="30" as="geometry">
            <mxRectangle width="30" height="30" as="alternateBounds" />
          </mxGeometry>
        </mxCell>
        <mxCell id="OlLT59zbi4Das9g7III4-10" value="Row 2" style="shape=partialRectangle;connectable=0;fillColor=none;top=0;left=0;bottom=0;right=0;align=left;spacingLeft=6;overflow=hidden;whiteSpace=wrap;html=1;" vertex="1" parent="OlLT59zbi4Das9g7III4-8">
          <mxGeometry x="30" width="152" height="30" as="geometry">
            <mxRectangle width="152" height="30" as="alternateBounds" />
          </mxGeometry>
        </mxCell>
        <mxCell id="OlLT59zbi4Das9g7III4-11" value="" style="shape=tableRow;horizontal=0;startSize=0;swimlaneHead=0;swimlaneBody=0;fillColor=none;collapsible=0;dropTarget=0;points=[[0,0.5],[1,0.5]];portConstraint=eastwest;top=0;left=0;right=0;bottom=0;" vertex="1" parent="OlLT59zbi4Das9g7III4-1">
          <mxGeometry y="120" width="182" height="30" as="geometry" />
        </mxCell>
        <mxCell id="OlLT59zbi4Das9g7III4-12" value="" style="shape=partialRectangle;connectable=0;fillColor=none;top=0;left=0;bottom=0;right=0;editable=1;overflow=hidden;whiteSpace=wrap;html=1;" vertex="1" parent="OlLT59zbi4Das9g7III4-11">
          <mxGeometry width="30" height="30" as="geometry">
            <mxRectangle width="30" height="30" as="alternateBounds" />
          </mxGeometry>
        </mxCell>
        <mxCell id="OlLT59zbi4Das9g7III4-13" value="Row 3" style="shape=partialRectangle;connectable=0;fillColor=none;top=0;left=0;bottom=0;right=0;align=left;spacingLeft=6;overflow=hidden;whiteSpace=wrap;html=1;" vertex="1" parent="OlLT59zbi4Das9g7III4-11">
          <mxGeometry x="30" width="152" height="30" as="geometry">
            <mxRectangle width="152" height="30" as="alternateBounds" />
          </mxGeometry>
        </mxCell>
      </root>
    </mxGraphModel>
  </diagram>
</mxfile>
